<?xml version="1.0" encoding="iso-8859-1"?><!-- Generator: Adobe Illustrator 19.1.1, SVG Export Plug-In . SVG Version: 6.00 Build 0)  --><svg xmlns="http://www.w3.org/2000/svg" xmlns:xlink="http://www.w3.org/1999/xlink" viewBox="0 0 32 32" width="32px" height="32px"><g><path style="fill-rule:evenodd;clip-rule:evenodd;" d="M4.099,10.752C2.017,13.198,0,16.151,0,18.497c0,1.356,1.141,3.262,3.924,3.262c1.506,0,3.001-0.605,4.172-1.074c1.972-0.789,23.769-10.254,23.769-10.254c0.21-0.105,0.171-0.237-0.092-0.171c-0.106,0.027-23.73,6.429-23.73,6.429c-0.456,0.128-0.922,0.197-1.375,0.197c-2.042,0-3.418-0.979-3.418-3.121C3.25,12.933,3.51,11.931,4.099,10.752L4.099,10.752z"/></g></svg>